<svg width="512" height="512" viewBox="0 0 512 512" fill="none" xmlns="http://www.w3.org/2000/svg">
<g clip-path="url(#clip0_106_4)">
<circle cx="256" cy="256" r="251" fill="#111111" stroke="white" stroke-width="10"/>
<path d="M131 416.5C128 416.5 125.667 415.5 124 413.5C122.667 411.167 122 408.5 122 405.5C122.333 400.5 123.333 397.5 125 396.5C126.667 395.5 129.833 395 134.5 395C144.167 395 151.333 393.333 156 390C160.667 386.333 163.5 382 164.5 377C165.833 371.667 166.667 364.833 167 356.5V158C166.667 149.667 165.833 143 164.5 138C163.5 132.667 160.667 128.333 156 125C151.333 121.333 144.167 119.5 134.5 119.5H131.5C128.167 119.5 125.833 119 124.5 118C123.167 116.667 122.333 113.667 122 109C122 106 122.667 103.5 124 101.5C125.667 99.1667 128 98 131 98C152.667 99 172.333 99.5 190 99.5H260.5C278.833 99.5 293.667 100.833 305 103.5C316.333 106.167 326.5 110.333 335.5 116C344.167 121.667 351 129.5 356 139.5C361 149.167 363.5 159.833 363.5 171.5C363.5 192.167 356.667 208.667 343 221C329.667 233 314 241.167 296 245.5V247C313.333 247 329 250.5 343 257.5C357.333 264.167 368.333 273.333 376 285C384 296.333 388 308.667 388 322C388 344.667 381 363 367 377C353.333 391 336 401 315 407C294.333 412.667 272.833 415.5 250.5 415.5L190.5 415C172.5 415 152.667 415.5 131 416.5ZM237.5 237C250.833 237 262.333 236 272 234C282 232 290.833 226.667 298.5 218C306.167 209.333 310 195.833 310 177.5C310 137.833 290.5 118 251.5 118H216.5V237H237.5ZM252.5 395.5C277.167 395.167 296.833 389.167 311.5 377.5C326.5 365.5 334 346 334 319C332.333 301 323.833 286.167 308.5 274.5C293.5 262.833 269.667 257 237 257H216.5V356.5C216.5 367.833 217.5 376.333 219.5 382C221.833 387.333 225.333 391 230 393C235 394.667 242.5 395.5 252.5 395.5Z" fill="white"/>
</g>
<defs>
<clipPath id="clip0_106_4">
<rect width="512" height="512" fill="white"/>
</clipPath>
</defs>
</svg>
