<svg width="512" height="512" viewBox="0 0 512 512" fill="none" xmlns="http://www.w3.org/2000/svg">
<path d="M309.864 223.909C314.711 160.77 273.447 124.974 206.952 124.974C140.706 124.974 81.0466 168.227 67.2504 251.75C53.2057 338.256 99.4415 386.48 171.157 386.48C244.115 386.48 288.362 334.278 298.927 291.026H229.324C222.24 312.403 202.851 326.324 175.134 326.324C143.689 326.324 129.768 304.449 136.853 259.705C144.683 213.469 170.038 185.131 206.455 185.131C231.686 185.131 242.623 200.543 240.759 223.909H309.864ZM316.11 383H384.718L401.124 283.568C405.101 261.693 422.502 247.276 442.388 247.276C449.845 247.276 460.783 248.27 467.246 250.756L477.189 192.091C471.72 190.599 466.252 189.605 460.286 189.605C439.902 189.605 422.005 201.537 410.57 228.384H408.581L414.547 192.091H347.928L316.11 383Z" fill="#FF0000"/>
</svg>
