<svg width="512" height="512" viewBox="0 0 512 512" fill="none" xmlns="http://www.w3.org/2000/svg">
<rect width="512" height="512" rx="256" fill="#69DC80"/>
<path d="M255.999 460.797C0 0 0 0 255.999 460.797C0 0 0 0 255.999 460.797ZM350.898 222.897C355.561 218.068 358.141 211.602 358.083 204.89C358.025 198.177 355.332 191.756 350.586 187.01C345.839 182.264 339.419 179.571 332.706 179.513C325.994 179.455 319.528 182.035 314.699 186.698L230.399 270.999L197.298 237.898C192.469 233.235 186.003 230.655 179.291 230.713C172.578 230.771 166.158 233.464 161.411 238.21C156.665 242.956 153.972 249.377 153.914 256.09C153.856 262.802 156.436 269.268 161.099 274.097L212.299 325.297C217.1 330.096 223.61 332.792 230.399 332.792C237.187 332.792 243.697 330.096 248.498 325.297L350.898 222.897V222.897Z" fill="white"/>
</svg>
