<svg width="512" height="512" viewBox="0 0 512 512" fill="none" xmlns="http://www.w3.org/2000/svg">
<path d="M312 0H200C105.719 0 58.5786 0 29.2893 29.2893C0 58.5786 0 105.719 0 200V312C0 406.281 0 453.421 29.2893 482.711C58.5786 512 105.719 512 200 512H312C406.281 512 453.421 512 482.711 482.711C512 453.421 512 406.281 512 312V200C512 105.719 512 58.5786 482.711 29.2893C453.421 0 406.281 0 312 0Z" fill="#34D399"/>
<path d="M434.879 122H77.2075C61.6289 122 49 134.629 49 150.208V342.018C49 357.597 61.6289 370.226 77.2075 370.226H434.879C450.458 370.226 463.087 357.597 463.087 342.018V150.208C463.087 134.629 450.458 122 434.879 122Z" fill="white"/>
<path d="M156.808 413.416C161.181 417.645 168.121 417.645 172.494 413.416L224.231 363.388C231.523 356.336 226.532 343.993 216.388 343.993H112.914C102.77 343.993 97.7785 356.336 105.071 363.388L156.808 413.416Z" fill="white"/>
</svg>
