<svg width="512" height="512" viewBox="0 0 512 512" fill="none" xmlns="http://www.w3.org/2000/svg">
<path d="M7.49716 383H76.6023L93.0085 283.568H184.486L168.08 383H237.185L279.443 128.455H210.338L193.932 227.886H102.455L118.861 128.455H49.7557L7.49716 383ZM372.909 386.48C433.065 386.48 480.917 355.159 487.753 313.398C493.097 280.834 471.098 256.473 435.054 252.247V250.259C468.115 247.4 491.73 232.485 496.702 202.531C503.538 160.77 469.234 124.974 411.19 124.974C355.509 124.974 309.521 157.911 301.815 204.52H367.44C369.678 189.108 388.57 178.17 407.71 178.17C425.235 178.17 432.817 186.871 430.58 200.045C427.721 217.197 410.445 229.875 389.315 229.875H364.955L357 277.602H384.344C405.349 277.602 419.766 284.687 417.156 300.472C414.67 315.884 398.264 330.798 376.886 330.798C358.864 330.798 346.187 320.234 349.045 305.443H280.438C272.234 352.922 310.64 386.48 372.909 386.48Z" fill="#60CDF6"/>
</svg>
