<svg width="512" height="512" viewBox="0 0 512 512" fill="none" xmlns="http://www.w3.org/2000/svg">
<g clip-path="url(#clip0_109_17)">
<rect width="512" height="512" rx="100" fill="url(#paint0_linear_109_17)"/>
<path d="M270 340.5H210L197.5 405.5H146L158.5 340.5H117.5L124.5 300.5H165.5L180.5 222.5H139L147 182.5H188L200.5 118.5H252L239.5 182.5H300L312.5 118.5H364L351.5 182.5H394.5L385.5 222.5H344L329 300.5H371.5L364 340.5H322L309.5 405.5H257.5L270 340.5ZM217 300.5H277.5L292 222.5H232L217 300.5Z" fill="#111111" fill-opacity="0.75"/>
</g>
<defs>
<linearGradient id="paint0_linear_109_17" x1="87" y1="8.69669e-06" x2="467" y2="512" gradientUnits="userSpaceOnUse">
<stop stop-color="#FFE74C"/>
<stop offset="0.621073" stop-color="#6BF178"/>
<stop offset="1" stop-color="#35A7FF"/>
</linearGradient>
<clipPath id="clip0_109_17">
<rect width="512" height="512" fill="white"/>
</clipPath>
</defs>
</svg>
