<svg width="512" height="512" viewBox="0 0 512 512" fill="none" xmlns="http://www.w3.org/2000/svg">
<path d="M256 512C397.385 512 512 397.385 512 256C512 114.615 397.385 0 256 0C114.615 0 0 114.615 0 256C0 397.385 114.615 512 256 512Z" fill="#001200"/>
<g filter="url(#filter0_d_111_14)">
<path d="M166.968 235.166C163.143 233.558 161.42 229.093 163.174 225.332L171.071 208.396C172.778 204.735 177.13 203.151 180.792 204.858L435.03 323.411C438.69 325.118 440.275 329.47 438.568 333.131L435.225 340.299C433.564 343.861 429.385 345.473 425.762 343.951L166.968 235.166Z" fill="#5B7B00"/>
<path d="M159.49 250.538C155.829 248.831 154.245 244.479 155.952 240.818L163.971 223.622C165.678 219.961 170.03 218.377 173.691 220.085L289.735 274.197C295.782 277.017 295.205 285.798 288.842 287.802L262.048 296.243C260.304 296.792 258.417 296.669 256.759 295.896L159.49 250.538Z" fill="#5B7B00"/>
<path d="M190.856 222.623L197.075 240.219C198.421 244.028 202.578 245.966 206.361 244.549L294.416 211.562C298.199 210.145 300.174 205.908 298.828 202.099L292.61 184.503C291.264 180.694 287.106 178.756 283.323 180.173L195.269 213.16C191.486 214.578 189.51 218.814 190.856 222.623Z" fill="#5B7B00"/>
<path d="M301.635 287.747L319.112 281.2C322.895 279.783 324.87 275.546 323.524 271.738L292.713 184.551C291.367 180.742 287.21 178.803 283.427 180.22L265.95 186.768C262.168 188.185 260.192 192.421 261.538 196.23L292.349 283.417C293.695 287.226 297.852 289.164 301.635 287.747Z" fill="#5B7B00"/>
<path d="M248.62 265.03L266.224 258.333C270 256.897 274.136 258.826 275.463 262.641L305.649 349.451C306.975 353.266 304.99 357.524 301.214 358.96L283.61 365.656C279.834 367.092 275.698 365.164 274.371 361.348L244.186 274.539C242.859 270.723 244.844 266.466 248.62 265.03Z" fill="#5B7B00"/>
<path d="M364.058 307.177L370.244 324.967C371.571 328.782 369.586 333.04 365.81 334.476L283.713 365.705C279.938 367.141 275.802 365.212 274.475 361.397L268.289 343.606C266.962 339.791 268.947 335.534 272.723 334.097L354.82 302.869C358.595 301.433 362.732 303.361 364.058 307.177Z" fill="#5B7B00"/>
<path d="M175.887 332.842C174.045 336.701 169.299 338.164 165.604 336.012L144.568 323.756L182.377 242.673L212.265 256.61L175.887 332.842Z" fill="#5B7B00"/>
<path d="M85.5282 290.774C82.1987 288.898 80.8748 284.775 82.4898 281.312L84.7419 276.483C86.362 273.009 90.39 271.375 93.9725 272.739L179.55 305.31L165.349 335.764L85.5282 290.774Z" fill="#5B7B00"/>
<path d="M180.128 231.893C192.774 204.772 181.449 172.725 154.832 160.313C128.216 147.902 96.3862 159.826 83.7396 186.946C71.0929 214.067 82.4181 246.115 109.035 258.526C135.652 270.938 167.481 259.014 180.128 231.893Z" fill="#5B7B00"/>
</g>
<g filter="url(#filter1_d_111_14)">
<path d="M180.814 36.8408C180.642 35.4343 182.369 34.6285 183.336 35.6649L202.917 56.6629C203.35 57.1264 204.031 57.2589 204.605 56.991L230.626 44.8571C231.91 44.2582 233.211 45.6527 232.524 46.8922L218.604 72.0035C218.297 72.5578 218.382 73.2468 218.814 73.7105L238.395 94.7084C239.362 95.7448 238.437 97.4125 237.046 97.1418L208.862 91.6634C208.241 91.5428 207.611 91.8361 207.304 92.3905L193.385 117.502C192.697 118.741 190.826 118.377 190.653 116.971L187.154 88.4737C187.077 87.8447 186.604 87.337 185.981 87.2164L157.798 81.738C156.407 81.4673 156.174 79.5751 157.458 78.9761L183.48 66.842C184.054 66.5742 184.39 65.967 184.313 65.3379L180.814 36.8408Z" fill="#5B7B00"/>
</g>
<defs>
<filter id="filter0_d_111_14" x="53.5637" y="134.402" width="410.691" height="260.778" filterUnits="userSpaceOnUse" color-interpolation-filters="sRGB">
<feFlood flood-opacity="0" result="BackgroundImageFix"/>
<feColorMatrix in="SourceAlpha" type="matrix" values="0 0 0 0 0 0 0 0 0 0 0 0 0 0 0 0 0 0 127 0" result="hardAlpha"/>
<feOffset dy="4"/>
<feGaussianBlur stdDeviation="12.5"/>
<feColorMatrix type="matrix" values="0 0 0 0 0.356863 0 0 0 0 0.482353 0 0 0 0 0 0 0 0 1 0"/>
<feBlend mode="normal" in2="BackgroundImageFix" result="effect1_dropShadow_111_14"/>
<feBlend mode="normal" in="SourceGraphic" in2="effect1_dropShadow_111_14" result="shape"/>
</filter>
<filter id="filter1_d_111_14" x="131.613" y="14.1951" width="132.18" height="133.062" filterUnits="userSpaceOnUse" color-interpolation-filters="sRGB">
<feFlood flood-opacity="0" result="BackgroundImageFix"/>
<feColorMatrix in="SourceAlpha" type="matrix" values="0 0 0 0 0 0 0 0 0 0 0 0 0 0 0 0 0 0 127 0" result="hardAlpha"/>
<feOffset dy="4"/>
<feGaussianBlur stdDeviation="12.5"/>
<feColorMatrix type="matrix" values="0 0 0 0 0.356863 0 0 0 0 0.482353 0 0 0 0 0 0 0 0 1 0"/>
<feBlend mode="normal" in2="BackgroundImageFix" result="effect1_dropShadow_111_14"/>
<feBlend mode="normal" in="SourceGraphic" in2="effect1_dropShadow_111_14" result="shape"/>
</filter>
</defs>
</svg>
