<svg width="705" height="796" viewBox="0 0 705 796" fill="none" xmlns="http://www.w3.org/2000/svg">
<rect x="40.9884" y="647.616" width="98.3721" height="147.558" rx="16.3953" fill="black"/>
<rect x="549.244" y="647.616" width="98.3721" height="147.558" rx="16.3953" fill="black"/>
<rect y="24.593" width="705" height="737.791" rx="40.9884" fill="#F2F2F2"/>
<path d="M0 106.57C0 67.9256 0 48.6035 12.0052 36.5983C24.0104 24.593 43.3325 24.593 81.9767 24.593H623.023C661.667 24.593 680.99 24.593 692.995 36.5983C705 48.6035 705 67.9256 705 106.57V188.547H0V106.57Z" fill="#E42C02"/>
<path d="M106.57 24.593C106.57 11.0107 117.58 0 131.163 0H573.837C587.419 0 598.43 11.0107 598.43 24.593H106.57Z" fill="#BB2300"/>
<rect x="24.593" y="49.1861" width="655.814" height="524.651" rx="24.593" fill="url(#paint0_linear)"/>
<path d="M24.593 98.3722C24.593 75.1856 24.593 63.5923 31.7961 56.3892C38.9993 49.1861 50.5925 49.1861 73.7791 49.1861H623.023C646.21 49.1861 657.803 49.1861 665.006 56.3892C672.209 63.5923 672.209 75.1856 672.209 98.3721V188.547H24.593V98.3722Z" fill="#111111"/>
<path d="M486.417 149.384C485.696 149.384 485.073 149.121 484.548 148.597C484.023 148.072 483.761 147.449 483.761 146.728V106.985L472.743 115.445C472.35 115.773 471.858 115.937 471.268 115.937C470.415 115.937 469.661 115.511 469.005 114.658L460.348 103.444C460.086 102.788 459.955 102.296 459.955 101.968C459.955 101.509 460.053 101.083 460.25 100.69C460.512 100.23 460.84 99.8698 461.234 99.6074L484.941 81.2119C485.597 80.7528 486.319 80.5233 487.106 80.5233H505.698C506.419 80.5233 507.042 80.7856 507.567 81.3102C508.092 81.8349 508.354 82.4579 508.354 83.1793V146.728C508.354 147.449 508.092 148.072 507.567 148.597C507.042 149.121 506.419 149.384 505.698 149.384H486.417ZM548.061 150.367C540.716 150.367 534.65 149.285 529.862 147.121C525.14 144.891 521.697 142.203 519.533 139.055C517.369 135.907 516.221 132.857 516.09 129.906C516.09 129.316 516.287 128.824 516.68 128.43C517.139 127.971 517.664 127.742 518.254 127.742H538.027C538.814 127.742 539.437 127.873 539.896 128.135C540.355 128.398 540.847 128.791 541.372 129.316C542.027 129.972 542.847 130.463 543.831 130.791C544.815 131.119 546.257 131.283 548.159 131.283C550.324 131.283 551.93 130.791 552.98 129.808C554.094 128.824 554.652 127.578 554.652 126.07C554.652 123.184 552.488 121.741 548.159 121.741H535.863C535.141 121.741 534.518 121.479 533.994 120.954C533.469 120.43 533.207 119.807 533.207 119.085V111.117C533.207 110.199 533.404 109.412 533.797 108.756C534.191 108.035 534.65 107.51 535.174 107.182L548.848 99.7058H522.976C522.255 99.7058 521.632 99.4435 521.107 98.9188C520.582 98.3942 520.32 97.7712 520.32 97.0498V83.1793C520.32 82.4579 520.582 81.8349 521.107 81.3102C521.632 80.7856 522.255 80.5233 522.976 80.5233H573.343C574.064 80.5233 574.687 80.7856 575.212 81.3102C575.736 81.8349 575.999 82.4579 575.999 83.1793V95.6726C575.999 96.5251 575.802 97.3121 575.408 98.0335C575.015 98.6893 574.556 99.214 574.031 99.6074L562.522 107.28V107.576C574.326 110.396 580.229 117.15 580.229 127.84C580.229 132.3 578.851 136.235 576.097 139.645C573.343 143.055 569.506 145.711 564.587 147.613C559.734 149.449 554.226 150.367 548.061 150.367ZM596.754 149.384C596.163 149.384 595.639 149.187 595.18 148.793C594.786 148.334 594.589 147.81 594.589 147.22C594.589 146.892 594.655 146.597 594.786 146.334L616.035 100.69H588.982C588.261 100.69 587.638 100.427 587.113 99.9026C586.589 99.3779 586.326 98.7549 586.326 98.0335V83.1793C586.326 82.4579 586.589 81.8349 587.113 81.3102C587.638 80.7856 588.261 80.5233 588.982 80.5233H639.841C640.628 80.5233 641.251 80.7856 641.71 81.3102C642.234 81.8349 642.497 82.4579 642.497 83.1793V96.1644C642.497 97.1481 642.365 98.0007 642.103 98.7221C641.906 99.4435 641.611 100.263 641.218 101.181L619.773 147.121C618.92 148.63 617.576 149.384 615.739 149.384H596.754Z" fill="#F2994A"/>
<path d="M57.2527 149.384C56.5313 149.384 55.9083 149.121 55.3836 148.597C54.8589 148.072 54.5966 147.449 54.5966 146.728V83.1793C54.5966 82.4579 54.8589 81.8349 55.3836 81.3102C55.9083 80.7856 56.5313 80.5233 57.2527 80.5233H72.7955C74.6317 80.5233 75.9762 81.2774 76.8287 82.7858L93.4536 110.035V83.1793C93.4536 82.4579 93.7159 81.8349 94.2406 81.3102C94.7652 80.7856 95.3883 80.5233 96.1096 80.5233H113.915C114.636 80.5233 115.259 80.7856 115.784 81.3102C116.309 81.8349 116.571 82.4579 116.571 83.1793V146.728C116.571 147.449 116.309 148.072 115.784 148.597C115.259 149.121 114.636 149.384 113.915 149.384H98.3722C97.2573 149.384 96.4048 149.154 95.8145 148.695C95.2243 148.236 94.7324 147.711 94.339 147.121L77.7141 122.036V146.728C77.7141 147.449 77.4517 148.072 76.9271 148.597C76.4024 149.121 75.7794 149.384 75.058 149.384H57.2527ZM130.071 149.384C129.35 149.384 128.727 149.121 128.202 148.597C127.677 148.072 127.415 147.449 127.415 146.728V83.1793C127.415 82.4579 127.677 81.8349 128.202 81.3102C128.727 80.7856 129.35 80.5233 130.071 80.5233H162.731C172.043 80.5233 178.896 82.2284 183.29 85.6386C187.75 89.0488 189.98 94.2298 189.98 101.181C189.98 104.001 189.16 106.526 187.52 108.756C185.881 110.92 184.077 112.494 182.11 113.478C184.733 114.527 186.93 116.396 188.701 119.085C190.537 121.708 191.455 124.594 191.455 127.742C191.455 135.021 189.094 140.465 184.372 144.072C179.651 147.613 172.765 149.384 163.714 149.384H130.071ZM160.271 106.395C161.583 106.395 162.567 105.969 163.222 105.116C163.944 104.198 164.305 103.149 164.305 101.968C164.305 100.788 163.944 99.7386 163.222 98.8205C162.567 97.9023 161.583 97.4433 160.271 97.4433H152.008V106.395H160.271ZM161.157 132.464C162.665 132.464 163.78 131.972 164.501 130.988C165.288 130.004 165.682 128.89 165.682 127.643C165.682 126.397 165.255 125.283 164.403 124.299C163.616 123.315 162.534 122.823 161.157 122.823H152.008V132.464H161.157Z" fill="#F2994A"/>
<rect x="286.919" y="590.233" width="122.965" height="32.7907" rx="8.19767" fill="#EB5757"/>
<path d="M0 688.605H705C705 719.344 705 734.713 697.172 745.488C694.644 748.967 691.584 752.028 688.104 754.556C677.33 762.384 661.96 762.384 631.221 762.384H73.7791C43.04 762.384 27.6704 762.384 16.896 754.556C13.4163 752.028 10.3562 748.967 7.82808 745.488C0 734.713 0 719.344 0 688.605Z" fill="#832778"/>
<path d="M0 631.221H102.71C113.092 631.221 123.087 635.161 130.677 642.245L180.349 688.605H0V631.221Z" fill="#832778"/>
<path d="M705 631.221H602.29C591.908 631.221 581.913 635.161 574.323 642.245L524.651 688.605H705V631.221Z" fill="#832778"/>
<rect x="16.3953" y="647.616" width="114.767" height="40.9884" rx="20.4942" fill="white"/>
<rect x="573.837" y="647.616" width="114.767" height="40.9884" rx="20.4942" fill="white"/>
<defs>
<linearGradient id="paint0_linear" x1="663.804" y1="143.459" x2="29.7196" y2="581.262" gradientUnits="userSpaceOnUse">
<stop stop-color="#1F1F1F"/>
<stop offset="1" stop-color="#333333"/>
</linearGradient>
</defs>
</svg>
