<svg width="512" height="579" viewBox="0 0 512 579" fill="none" xmlns="http://www.w3.org/2000/svg">
<path d="M89.3024 470.325H41.6744C35.0984 470.325 29.7675 475.656 29.7675 482.232V565.581C29.7675 572.157 35.0984 577.488 41.6744 577.488H89.3024C95.8784 577.488 101.209 572.157 101.209 565.581V482.232C101.209 475.656 95.8784 470.325 89.3024 470.325Z" fill="black"/>
<path d="M458.419 470.325H410.791C404.214 470.325 398.884 475.656 398.884 482.232V565.581C398.884 572.157 404.214 577.488 410.791 577.488H458.419C464.995 577.488 470.325 572.157 470.325 565.581V482.232C470.325 475.656 464.995 470.325 458.419 470.325Z" fill="black"/>
<path d="M482.233 17.8605H29.7675C13.3273 17.8605 0 31.1878 0 47.6279V523.907C0 540.347 13.3273 553.675 29.7675 553.675H482.233C498.673 553.675 512 540.347 512 523.907V47.6279C512 31.1878 498.673 17.8605 482.233 17.8605Z" fill="#F2F2F2"/>
<path d="M0 77.3955C0 49.3304 0 35.2979 8.71867 26.5792C17.4373 17.8605 31.4698 17.8605 59.5348 17.8605H452.465C480.53 17.8605 494.563 17.8605 503.281 26.5792C512 35.2979 512 49.3304 512 77.3955V136.931H0V77.3955Z" fill="#E42C02"/>
<path d="M77.3955 17.8604C77.3955 7.99642 85.3914 0 95.256 0H416.744C426.608 0 434.604 7.99642 434.604 17.8604H77.3955Z" fill="#BB2300"/>
<path d="M476.279 35.7209H35.7209C25.8569 35.7209 17.8605 43.7173 17.8605 53.5814V398.884C17.8605 408.748 25.8569 416.744 35.7209 416.744H476.279C486.143 416.744 494.14 408.748 494.14 398.884V53.5814C494.14 43.7173 486.143 35.7209 476.279 35.7209Z" fill="url(#paint0_linear_101_2)"/>
<path d="M17.8605 71.4419C17.8605 54.6029 17.8605 46.1833 23.0917 40.9521C28.3229 35.7209 36.7424 35.7209 53.5814 35.7209H452.465C469.304 35.7209 477.724 35.7209 482.955 40.9521C488.186 46.1833 488.186 54.6029 488.186 71.4418V136.931H17.8605V71.4419Z" fill="#111111"/>
<path d="M353.256 108.489C352.732 108.489 352.28 108.298 351.899 107.917C351.517 107.536 351.327 107.084 351.327 106.56V77.6969L343.325 83.8409C343.04 84.0792 342.683 84.1983 342.254 84.1983C341.635 84.1983 341.087 83.8889 340.611 83.2694L334.324 75.1253C334.133 74.6489 334.038 74.2916 334.038 74.0534C334.038 73.7201 334.109 73.4107 334.252 73.1253C334.443 72.7912 334.681 72.5296 334.967 72.339L352.184 58.9795C352.66 58.646 353.185 58.4794 353.756 58.4794H367.259C367.782 58.4794 368.235 58.6699 368.616 59.0509C368.997 59.4319 369.188 59.8844 369.188 60.4083V106.56C369.188 107.084 368.997 107.536 368.616 107.917C368.235 108.298 367.782 108.489 367.259 108.489H353.256ZM398.024 109.203C392.69 109.203 388.285 108.417 384.808 106.845C381.378 105.226 378.878 103.274 377.306 100.987C375.735 98.7013 374.901 96.4863 374.806 94.3431C374.806 93.9146 374.949 93.5573 375.234 93.2712C375.568 92.9378 375.949 92.7715 376.377 92.7715H390.737C391.309 92.7715 391.761 92.8667 392.095 93.0569C392.428 93.2479 392.785 93.5334 393.167 93.9146C393.642 94.391 394.238 94.7476 394.952 94.9858C395.667 95.2241 396.714 95.3432 398.096 95.3432C399.668 95.3432 400.834 94.9858 401.597 94.2719C402.406 93.5573 402.811 92.6524 402.811 91.5573C402.811 89.4613 401.239 88.4134 398.096 88.4134H389.166C388.641 88.4134 388.189 88.2231 387.808 87.8418C387.427 87.4613 387.237 87.0088 387.237 86.4845V80.6978C387.237 80.0311 387.38 79.4595 387.665 78.9831C387.951 78.4595 388.285 78.0782 388.665 77.84L398.596 72.4105H379.807C379.283 72.4105 378.831 72.22 378.449 71.8389C378.068 71.458 377.878 71.0055 377.878 70.4816V60.4083C377.878 59.8844 378.068 59.4319 378.449 59.0509C378.831 58.6699 379.283 58.4794 379.807 58.4794H416.385C416.909 58.4794 417.361 58.6699 417.743 59.0509C418.123 59.4319 418.314 59.8844 418.314 60.4083V69.4814C418.314 70.1005 418.171 70.6721 417.885 71.196C417.6 71.6723 417.266 72.0533 416.885 72.339L408.527 77.9112V78.1262C417.099 80.1742 421.386 85.0792 421.386 92.8427C421.386 96.0817 420.385 98.9395 418.385 101.416C416.385 103.892 413.599 105.821 410.026 107.203C406.502 108.536 402.502 109.203 398.024 109.203ZM433.387 108.489C432.958 108.489 432.578 108.346 432.244 108.06C431.958 107.726 431.815 107.346 431.815 106.917C431.815 106.679 431.863 106.465 431.958 106.274L447.39 73.1253H427.743C427.219 73.1253 426.767 72.9343 426.386 72.5534C426.005 72.1724 425.814 71.7199 425.814 71.196V60.4083C425.814 59.8844 426.005 59.4319 426.386 59.0509C426.767 58.6699 427.219 58.4794 427.743 58.4794H464.679C465.25 58.4794 465.703 58.6699 466.036 59.0509C466.417 59.4319 466.608 59.8844 466.608 60.4083V69.8386C466.608 70.553 466.512 71.1722 466.322 71.6961C466.179 72.22 465.964 72.8152 465.679 73.4818L450.105 106.845C449.485 107.941 448.509 108.489 447.175 108.489H433.387Z" fill="#F2994A"/>
<path d="M41.5792 108.489C41.0553 108.489 40.6029 108.298 40.2218 107.917C39.8408 107.536 39.6503 107.084 39.6503 106.56V60.4083C39.6503 59.8844 39.8408 59.4319 40.2218 59.0509C40.6029 58.6699 41.0553 58.4794 41.5792 58.4794H52.8671C54.2006 58.4794 55.177 59.027 55.7961 60.1225L67.8698 79.912V60.4083C67.8698 59.8844 68.0603 59.4319 68.4414 59.0509C68.8224 58.6699 69.2749 58.4794 69.7987 58.4794H82.7297C83.2534 58.4794 83.7058 58.6699 84.0871 59.0509C84.4683 59.4319 84.6586 59.8844 84.6586 60.4083V106.56C84.6586 107.084 84.4683 107.536 84.0871 107.917C83.7058 108.298 83.2534 108.489 82.7297 108.489H71.4419C70.6322 108.489 70.0131 108.322 69.5844 107.988C69.1558 107.655 68.7985 107.274 68.5128 106.845L56.4392 88.6276V106.56C56.4392 107.084 56.2486 107.536 55.8676 107.917C55.4865 108.298 55.0341 108.489 54.5102 108.489H41.5792ZM94.4629 108.489C93.9393 108.489 93.4868 108.298 93.1055 107.917C92.7243 107.536 92.534 107.084 92.534 106.56V60.4083C92.534 59.8844 92.7243 59.4319 93.1055 59.0509C93.4868 58.6699 93.9393 58.4794 94.4629 58.4794H118.182C124.945 58.4794 129.922 59.7177 133.113 62.1943C136.352 64.6709 137.971 68.4336 137.971 73.4818C137.971 75.5298 137.376 77.3636 136.185 78.9831C134.994 80.5547 133.684 81.6978 132.256 82.4124C134.161 83.1743 135.756 84.5316 137.042 86.4845C138.376 88.3894 139.042 90.4853 139.042 92.7715C139.042 98.0578 137.328 102.012 133.898 104.631C130.47 107.203 125.469 108.489 118.896 108.489H94.4629ZM116.395 77.2685C117.348 77.2685 118.063 76.9591 118.538 76.3396C119.063 75.6729 119.325 74.9111 119.325 74.0534C119.325 73.1964 119.063 72.4343 118.538 71.7676C118.063 71.1007 117.348 70.7674 116.395 70.7674H110.394V77.2685H116.395ZM117.039 96.2008C118.134 96.2008 118.944 95.8435 119.467 95.1289C120.039 94.4143 120.325 93.6053 120.325 92.6996C120.325 91.7947 120.015 90.9857 119.396 90.2711C118.825 89.5565 118.039 89.1992 117.039 89.1992H110.394V96.2008H117.039Z" fill="#F2994A"/>
<path d="M291.721 428.651H214.326C211.038 428.651 208.372 431.317 208.372 434.605V446.512C208.372 449.8 211.038 452.465 214.326 452.465H291.721C295.009 452.465 297.675 449.8 297.675 446.512V434.605C297.675 431.317 295.009 428.651 291.721 428.651Z" fill="#EB5757"/>
<path d="M0 500.093H512C512 522.417 512 533.579 506.315 541.404C504.479 543.931 502.257 546.154 499.729 547.99C491.905 553.675 480.743 553.675 458.419 553.675H53.5814C31.2574 553.675 20.0954 553.675 12.2706 547.99C9.74347 546.154 7.5211 543.931 5.68507 541.404C0 533.579 0 522.417 0 500.093Z" fill="#832778"/>
<path d="M0 458.419H74.5922C82.1321 458.419 89.3908 461.28 94.903 466.425L130.977 500.093H0V458.419Z" fill="#832778"/>
<path d="M512 458.419H437.408C429.868 458.419 422.609 461.28 417.097 466.425L381.023 500.093H512V458.419Z" fill="#832778"/>
<path d="M80.3718 470.325H26.7907C18.5707 470.325 11.907 476.989 11.907 485.209C11.907 493.429 18.5707 500.093 26.7907 500.093H80.3718C88.5918 500.093 95.2555 493.429 95.2555 485.209C95.2555 476.989 88.5918 470.325 80.3718 470.325Z" fill="white"/>
<path d="M485.209 470.325H431.628C423.408 470.325 416.744 476.989 416.744 485.209C416.744 493.429 423.408 500.093 431.628 500.093H485.209C493.429 500.093 500.093 493.429 500.093 485.209C500.093 476.989 493.429 470.325 485.209 470.325Z" fill="white"/>
<defs>
<linearGradient id="paint0_linear_101_2" x1="482.082" y1="104.186" x2="21.5836" y2="422.136" gradientUnits="userSpaceOnUse">
<stop stop-color="#1F1F1F"/>
<stop offset="1" stop-color="#333333"/>
</linearGradient>
</defs>
</svg>
