<svg width="512" height="512" viewBox="0 0 512 512" fill="none" xmlns="http://www.w3.org/2000/svg">
<rect width="512" height="512" rx="75" fill="#10213C"/>
<path d="M173.07 289.039C158.878 301.799 142.992 308.18 125.414 308.18C99.6328 308.18 79.1901 299.456 64.0859 282.008C48.9818 264.56 41.4297 241.253 41.4297 212.086C41.4297 193.857 45.6615 176.93 54.125 161.305C62.5885 145.68 74.4375 133.31 89.6719 124.195C105.036 115.081 121.964 110.523 140.453 110.523C159.203 110.523 176.13 115.276 191.234 124.781C206.469 134.156 218.318 147.503 226.781 164.82C235.245 182.008 239.607 201.865 239.867 224.391V249.586C239.867 280.966 233.682 308.18 221.312 331.227C209.073 354.273 191.56 371.982 168.773 384.352C145.987 396.721 119.424 402.906 89.0859 402.906H84.9844V350.172L97.4844 349.977C142.797 347.763 167.992 327.451 173.07 289.039ZM143.188 260.719C157.51 260.719 167.797 254.534 174.047 242.164V214.82C174.047 196.591 170.987 183.115 164.867 174.391C158.747 165.667 150.479 161.305 140.062 161.305C130.818 161.305 123.07 166.253 116.82 176.148C110.57 186.044 107.445 198.023 107.445 212.086C107.445 226.93 110.635 238.779 117.016 247.633C123.396 256.357 132.12 260.719 143.188 260.719ZM404.711 289.039C390.518 301.799 374.633 308.18 357.055 308.18C331.273 308.18 310.831 299.456 295.727 282.008C280.622 264.56 273.07 241.253 273.07 212.086C273.07 193.857 277.302 176.93 285.766 161.305C294.229 145.68 306.078 133.31 321.312 124.195C336.677 115.081 353.604 110.523 372.094 110.523C390.844 110.523 407.771 115.276 422.875 124.781C438.109 134.156 449.958 147.503 458.422 164.82C466.885 182.008 471.247 201.865 471.508 224.391V249.586C471.508 280.966 465.323 308.18 452.953 331.227C440.714 354.273 423.201 371.982 400.414 384.352C377.628 396.721 351.065 402.906 320.727 402.906H316.625V350.172L329.125 349.977C374.438 347.763 399.633 327.451 404.711 289.039ZM374.828 260.719C389.151 260.719 399.438 254.534 405.688 242.164V214.82C405.688 196.591 402.628 183.115 396.508 174.391C390.388 165.667 382.12 161.305 371.703 161.305C362.458 161.305 354.711 166.253 348.461 176.148C342.211 186.044 339.086 198.023 339.086 212.086C339.086 226.93 342.276 238.779 348.656 247.633C355.036 256.357 363.76 260.719 374.828 260.719Z" fill="white"/>
</svg>
