<svg width="512" height="512" viewBox="0 0 512 512" fill="none" xmlns="http://www.w3.org/2000/svg">
<g clip-path="url(#clip0_111_35)">
<path d="M381.854 106H67.2195C52.7389 106 41 117.743 41 132.228V315.825C41 330.31 52.7389 342.053 67.2195 342.053H381.854C396.334 342.053 408.073 330.31 408.073 315.825V132.228C408.073 117.743 396.334 106 381.854 106Z" fill="#FADEFF"/>
<path d="M291.659 121.737H63.5488C62.6799 121.737 61.9756 122.441 61.9756 123.311V147.965C61.9756 148.834 62.6799 149.539 63.5488 149.539H291.659C292.527 149.539 293.232 148.834 293.232 147.965V123.311C293.232 122.441 292.527 121.737 291.659 121.737Z" fill="#F093FF" fill-opacity="0.5"/>
<path d="M408.073 175.767H41V178.389H408.073V175.767Z" fill="#494949"/>
<path d="M219.817 157.932H63.5488C62.6799 157.932 61.9756 158.636 61.9756 159.505V165.8C61.9756 166.669 62.6799 167.374 63.5488 167.374H219.817C220.686 167.374 221.39 166.669 221.39 165.8V159.505C221.39 158.636 220.686 157.932 219.817 157.932Z" fill="#8E8E8E" fill-opacity="0.65"/>
<path d="M257.573 217.732H185.207C184.339 217.732 183.634 218.436 183.634 219.305V225.6C183.634 226.469 184.339 227.174 185.207 227.174H257.573C258.442 227.174 259.146 226.469 259.146 225.6V219.305C259.146 218.436 258.442 217.732 257.573 217.732Z" fill="#8E8E8E" fill-opacity="0.65"/>
<path d="M247.61 309.005H185.207C184.339 309.005 183.634 309.71 183.634 310.579V316.874C183.634 317.743 184.339 318.447 185.207 318.447H247.61C248.479 318.447 249.183 317.743 249.183 316.874V310.579C249.183 309.71 248.479 309.005 247.61 309.005Z" fill="#8E8E8E" fill-opacity="0.65"/>
<path d="M262.817 294.318H185.207C184.339 294.318 183.634 295.022 183.634 295.891V302.186C183.634 303.055 184.339 303.76 185.207 303.76H262.817C263.686 303.76 264.39 303.055 264.39 302.186V295.891C264.39 295.022 263.686 294.318 262.817 294.318Z" fill="#8E8E8E" fill-opacity="0.65"/>
<path d="M255.476 279.63H185.207C184.339 279.63 183.634 280.334 183.634 281.204V287.498C183.634 288.367 184.339 289.072 185.207 289.072H255.476C256.345 289.072 257.049 288.367 257.049 287.498V281.204C257.049 280.334 256.345 279.63 255.476 279.63Z" fill="#8E8E8E" fill-opacity="0.65"/>
<path d="M377.134 217.732H265.963C265.094 217.732 264.39 218.436 264.39 219.305V225.6C264.39 226.469 265.094 227.174 265.963 227.174H377.134C378.003 227.174 378.707 226.469 378.707 225.6V219.305C378.707 218.436 378.003 217.732 377.134 217.732Z" fill="#8E8E8E" fill-opacity="0.65"/>
<path d="M301.098 157.932H228.207C227.339 157.932 226.634 158.636 226.634 159.505V165.8C226.634 166.669 227.339 167.374 228.207 167.374H301.098C301.967 167.374 302.671 166.669 302.671 165.8V159.505C302.671 158.636 301.967 157.932 301.098 157.932Z" fill="#8E8E8E" fill-opacity="0.65"/>
<path d="M155.841 196.749H64.5975C63.1495 196.749 61.9756 197.923 61.9756 199.372V315.824C61.9756 317.273 63.1495 318.447 64.5975 318.447H155.841C157.29 318.447 158.463 317.273 158.463 315.824V199.372C158.463 197.923 157.29 196.749 155.841 196.749Z" fill="#C4C4C4" fill-opacity="0.5"/>
<path d="M386.552 124.884H348.293V152.791H386.552V124.884Z" fill="#FF0000" fill-opacity="0.5"/>
<path d="M386.552 152.781C386.552 159.443 377.987 164.845 367.422 164.845C356.858 164.845 348.293 159.443 348.293 152.781C360.092 152.781 356.858 152.78 367.422 152.78C377.987 152.78 375.299 152.78 386.552 152.781Z" fill="#FF0000" fill-opacity="0.5"/>
<path d="M376.085 284.351H320.5C319.052 284.351 317.878 285.525 317.878 286.974V315.825C317.878 317.273 319.052 318.447 320.5 318.447H376.085C377.533 318.447 378.707 317.273 378.707 315.825V286.974C378.707 285.525 377.533 284.351 376.085 284.351Z" fill="white"/>
<path d="M366.646 290.646H330.464C329.015 290.646 327.842 291.82 327.842 293.268V310.054C327.842 311.503 329.015 312.677 330.464 312.677H366.646C368.094 312.677 369.268 311.503 369.268 310.054V293.268C369.268 291.82 368.094 290.646 366.646 290.646Z" fill="#EEEEEE"/>
<path d="M413.317 137.474H98.6829C84.2023 137.474 72.4634 149.216 72.4634 163.702V347.298C72.4634 361.784 84.2023 373.526 98.6829 373.526H413.317C427.798 373.526 439.537 361.784 439.537 347.298V163.702C439.537 149.216 427.798 137.474 413.317 137.474Z" fill="#BFFFC6"/>
<path d="M323.122 153.21H95.0121C94.1433 153.21 93.439 153.915 93.439 154.784V179.439C93.439 180.308 94.1433 181.012 95.0121 181.012H323.122C323.991 181.012 324.695 180.308 324.695 179.439V154.784C324.695 153.915 323.991 153.21 323.122 153.21Z" fill="#F093FF" fill-opacity="0.5"/>
<path d="M439.537 207.24H72.4634V209.863H439.537V207.24Z" fill="#494949"/>
<path d="M251.28 189.405H95.0121C94.1433 189.405 93.439 190.11 93.439 190.979V197.274C93.439 198.143 94.1433 198.847 95.0121 198.847H251.28C252.149 198.847 252.854 198.143 252.854 197.274V190.979C252.854 190.11 252.149 189.405 251.28 189.405Z" fill="#8E8E8E" fill-opacity="0.65"/>
<path d="M289.037 249.205H216.671C215.802 249.205 215.098 249.91 215.098 250.779V257.074C215.098 257.943 215.802 258.647 216.671 258.647H289.037C289.906 258.647 290.61 257.943 290.61 257.074V250.779C290.61 249.91 289.906 249.205 289.037 249.205Z" fill="#8E8E8E" fill-opacity="0.65"/>
<path d="M279.073 340.479H216.671C215.802 340.479 215.098 341.184 215.098 342.053V348.347C215.098 349.217 215.802 349.921 216.671 349.921H279.073C279.942 349.921 280.646 349.217 280.646 348.347V342.053C280.646 341.184 279.942 340.479 279.073 340.479Z" fill="#8E8E8E" fill-opacity="0.65"/>
<path d="M294.281 325.791H216.671C215.802 325.791 215.098 326.496 215.098 327.365V333.66C215.098 334.529 215.802 335.233 216.671 335.233H294.281C295.149 335.233 295.854 334.529 295.854 333.66V327.365C295.854 326.496 295.149 325.791 294.281 325.791Z" fill="#8E8E8E" fill-opacity="0.65"/>
<path d="M286.939 311.104H216.671C215.802 311.104 215.098 311.808 215.098 312.677V318.972C215.098 319.841 215.802 320.546 216.671 320.546H286.939C287.808 320.546 288.512 319.841 288.512 318.972V312.677C288.512 311.808 287.808 311.104 286.939 311.104Z" fill="#8E8E8E" fill-opacity="0.65"/>
<path d="M408.598 249.205H297.427C296.558 249.205 295.854 249.91 295.854 250.779V257.074C295.854 257.943 296.558 258.647 297.427 258.647H408.598C409.467 258.647 410.171 257.943 410.171 257.074V250.779C410.171 249.91 409.467 249.205 408.598 249.205Z" fill="#8E8E8E" fill-opacity="0.65"/>
<path d="M332.561 189.405H259.671C258.802 189.405 258.098 190.11 258.098 190.979V197.274C258.098 198.143 258.802 198.847 259.671 198.847H332.561C333.43 198.847 334.134 198.143 334.134 197.274V190.979C334.134 190.11 333.43 189.405 332.561 189.405Z" fill="#8E8E8E" fill-opacity="0.65"/>
<path d="M187.305 228.223H96.0609C94.6129 228.223 93.439 229.397 93.439 230.846V347.298C93.439 348.747 94.6129 349.921 96.0609 349.921H187.305C188.753 349.921 189.927 348.747 189.927 347.298V230.846C189.927 229.397 188.753 228.223 187.305 228.223Z" fill="#C4C4C4" fill-opacity="0.5"/>
<path d="M418.016 156.358H379.756V184.265H418.016V156.358Z" fill="#FF0000" fill-opacity="0.5"/>
<path d="M418.016 184.254C418.016 190.917 409.451 196.319 398.886 196.319C388.321 196.319 379.756 190.917 379.756 184.254C391.555 184.255 388.321 184.254 398.886 184.254C409.451 184.254 406.762 184.254 418.016 184.254Z" fill="#FF0000" fill-opacity="0.5"/>
<path d="M407.549 315.824H351.964C350.515 315.824 349.342 316.999 349.342 318.447V347.298C349.342 348.747 350.515 349.921 351.964 349.921H407.549C408.997 349.921 410.171 348.747 410.171 347.298V318.447C410.171 316.999 408.997 315.824 407.549 315.824Z" fill="white"/>
<path d="M398.11 322.119H361.927C360.479 322.119 359.305 323.294 359.305 324.742V341.528C359.305 342.977 360.479 344.151 361.927 344.151H398.11C399.558 344.151 400.732 342.977 400.732 341.528V324.742C400.732 323.294 399.558 322.119 398.11 322.119Z" fill="#EEEEEE"/>
<path d="M444.78 168.947H130.146C115.666 168.947 103.927 180.69 103.927 195.175V378.772C103.927 393.257 115.666 405 130.146 405H444.78C459.261 405 471 393.257 471 378.772V195.175C471 180.69 459.261 168.947 444.78 168.947Z" fill="#DEF9FF"/>
<path d="M354.585 184.684H126.476C125.607 184.684 124.902 185.389 124.902 186.258V210.912C124.902 211.782 125.607 212.486 126.476 212.486H354.585C355.454 212.486 356.158 211.782 356.158 210.912V186.258C356.158 185.389 355.454 184.684 354.585 184.684Z" fill="#F093FF" fill-opacity="0.5"/>
<path d="M471 238.714H103.927V241.337H471V238.714Z" fill="#494949"/>
<path d="M282.744 220.879H126.476C125.607 220.879 124.902 221.583 124.902 222.453V228.747C124.902 229.616 125.607 230.321 126.476 230.321H282.744C283.613 230.321 284.317 229.616 284.317 228.747V222.453C284.317 221.583 283.613 220.879 282.744 220.879Z" fill="#8E8E8E" fill-opacity="0.65"/>
<path d="M320.5 280.679H248.134C247.265 280.679 246.561 281.384 246.561 282.253V288.547C246.561 289.417 247.265 290.121 248.134 290.121H320.5C321.369 290.121 322.073 289.417 322.073 288.547V282.253C322.073 281.384 321.369 280.679 320.5 280.679Z" fill="#8E8E8E" fill-opacity="0.65"/>
<path d="M310.537 371.953H248.134C247.265 371.953 246.561 372.657 246.561 373.526V379.821C246.561 380.69 247.265 381.395 248.134 381.395H310.537C311.405 381.395 312.11 380.69 312.11 379.821V373.526C312.11 372.657 311.405 371.953 310.537 371.953Z" fill="#8E8E8E" fill-opacity="0.65"/>
<path d="M325.744 357.265H248.134C247.265 357.265 246.561 357.969 246.561 358.839V365.133C246.561 366.002 247.265 366.707 248.134 366.707H325.744C326.613 366.707 327.317 366.002 327.317 365.133V358.839C327.317 357.969 326.613 357.265 325.744 357.265Z" fill="#8E8E8E" fill-opacity="0.65"/>
<path d="M318.402 342.577H248.134C247.265 342.577 246.561 343.282 246.561 344.151V350.446C246.561 351.315 247.265 352.019 248.134 352.019H318.402C319.271 352.019 319.976 351.315 319.976 350.446V344.151C319.976 343.282 319.271 342.577 318.402 342.577Z" fill="#8E8E8E" fill-opacity="0.65"/>
<path d="M440.061 280.679H328.89C328.021 280.679 327.317 281.384 327.317 282.253V288.547C327.317 289.417 328.021 290.121 328.89 290.121H440.061C440.93 290.121 441.634 289.417 441.634 288.547V282.253C441.634 281.384 440.93 280.679 440.061 280.679Z" fill="#8E8E8E" fill-opacity="0.65"/>
<path d="M364.024 220.879H291.134C290.265 220.879 289.561 221.583 289.561 222.453V228.747C289.561 229.616 290.265 230.321 291.134 230.321H364.024C364.893 230.321 365.598 229.616 365.598 228.747V222.453C365.598 221.583 364.893 220.879 364.024 220.879Z" fill="#8E8E8E" fill-opacity="0.65"/>
<path d="M218.768 259.697H127.524C126.076 259.697 124.902 260.871 124.902 262.319V378.772C124.902 380.221 126.076 381.395 127.524 381.395H218.768C220.216 381.395 221.39 380.221 221.39 378.772V262.319C221.39 260.871 220.216 259.697 218.768 259.697Z" fill="#C4C4C4" fill-opacity="0.5"/>
<path d="M449.479 187.832H411.219V215.738H449.479V187.832Z" fill="#FF0000" fill-opacity="0.5"/>
<path d="M449.479 215.728C449.479 222.391 440.914 227.793 430.349 227.793C419.784 227.793 411.219 222.391 411.219 215.728C423.018 215.728 419.784 215.728 430.349 215.728C440.914 215.728 438.226 215.728 449.479 215.728Z" fill="#FF0000" fill-opacity="0.5"/>
<path d="M439.012 347.298H383.427C381.979 347.298 380.805 348.473 380.805 349.921V378.772C380.805 380.221 381.979 381.395 383.427 381.395H439.012C440.46 381.395 441.634 380.221 441.634 378.772V349.921C441.634 348.473 440.46 347.298 439.012 347.298Z" fill="white"/>
<path d="M429.573 353.593H393.39C391.942 353.593 390.768 354.767 390.768 356.216V373.002C390.768 374.45 391.942 375.625 393.39 375.625H429.573C431.021 375.625 432.195 374.45 432.195 373.002V356.216C432.195 354.767 431.021 353.593 429.573 353.593Z" fill="#EEEEEE"/>
</g>
<defs>
<clipPath id="clip0_111_35">
<rect width="430" height="299" fill="white" transform="translate(41 106)"/>
</clipPath>
</defs>
</svg>
