<svg width="512" height="512" viewBox="0 0 512 512" fill="none" xmlns="http://www.w3.org/2000/svg">
<path d="M181.114 390.023L208.485 350.933L266.457 391.783L242.914 433.296L181.114 390.023Z" fill="#666666"/>
<path d="M264.178 152.367L262.362 159.146L306.722 171.032L308.539 164.254L264.178 152.367Z" fill="#555555"/>
<path d="M151.401 270.351L149.001 276.946L185.867 290.364L188.267 283.77L151.401 270.351Z" fill="#555555"/>
<path d="M230.233 173.941L136.943 267.231L151.83 282.118L245.12 188.828L230.233 173.941Z" fill="#555555"/>
<path d="M264.969 143.175L212.369 195.775L223.286 206.692L275.886 154.092L264.969 143.175Z" fill="#555555"/>
<path d="M87.6852 495.859L33.232 441.406C30.4914 438.665 30.4914 434.222 33.232 431.481L182.595 282.118C184.788 279.925 188.343 279.925 190.535 282.118C192.728 284.31 196.282 284.31 198.475 282.118L284.947 195.646C285.837 194.756 286.471 193.642 286.783 192.423L291.288 174.811C291.6 173.592 292.235 172.479 293.125 171.588L347.571 117.142C348.077 116.636 348.657 116.21 349.292 115.88L403.813 87.493C406.53 86.0784 409.85 86.5894 412.016 88.7552L415.821 92.5598L473.383 34.9978L474.339 32.7665C474.691 31.9459 475.196 31.1999 475.827 30.5686L481.571 24.8252C484.174 22.2217 488.395 22.2217 490.999 24.8252C493.602 27.4288 493.603 31.65 490.999 34.2535L485.256 39.9969C484.624 40.6282 483.878 41.1332 483.058 41.4849L480.826 42.4412L423.264 100.003L424.257 100.996L424.753 100.499C427.494 97.7589 431.937 97.7589 434.677 100.499L436.662 102.484C439.403 105.225 439.403 109.668 436.662 112.409L436.166 112.905L437.159 113.897C439.899 116.638 439.899 121.081 437.159 123.822L341.429 219.551C340.432 220.549 339.157 221.222 337.772 221.484L323.665 224.153C322.28 224.415 321.005 225.089 320.008 226.086L214.844 331.25C213.015 333.079 212.34 335.767 213.089 338.243L217.587 353.122C218.063 354.696 217.971 356.388 217.326 357.901L201.057 396.116C199.109 400.69 193.153 401.845 189.638 398.329L173.663 382.355C170.923 379.614 166.48 379.614 163.739 382.355L110.725 435.369C109.703 436.391 109.021 437.704 108.774 439.128L99.5614 492.099C98.5872 497.7 91.7054 499.879 87.6852 495.859Z" fill="#333333"/>
<path d="M321.256 316.019L303.955 235.447C303.406 232.89 300.243 231.956 298.394 233.806C297.599 234.601 297.263 235.746 297.503 236.844L314.56 314.892C315.132 317.51 314.332 320.24 312.437 322.135L302.669 331.903C298.307 336.266 290.85 334.139 289.444 328.133L280.826 291.311C280.578 290.251 280.895 289.138 281.665 288.368L281.882 288.151C283.602 286.431 282.658 283.487 280.259 283.087C279.645 282.985 279.077 282.693 278.637 282.252L269.856 273.471C266.783 270.398 261.801 270.398 258.728 273.471L254.195 278.005C249.625 282.574 252.208 290.399 258.6 291.351L264.037 292.16C267.216 292.634 269.787 294.994 270.532 298.12L282.178 347.036C282.792 349.614 285.001 351.501 287.644 351.705C289.42 351.841 291.166 351.195 292.425 349.936L319.126 323.235C321.015 321.347 321.816 318.63 321.256 316.019Z" fill="#333333"/>
</svg>
