<svg width="512" height="428" viewBox="0 0 512 428" fill="none" xmlns="http://www.w3.org/2000/svg">
<g clip-path="url(#clip0_101_30)">
<path d="M198.747 13.8472L38.045 72.3378C17.0333 79.9854 6.1996 103.218 13.8472 124.23L110.211 388.988C117.859 410 141.092 420.834 162.104 413.186L322.805 354.696C343.817 347.048 354.651 323.815 347.003 302.803L250.639 38.045C242.991 17.0333 219.758 6.19958 198.747 13.8472Z" fill="#B3001B"/>
<path d="M202.438 23.993L41.7377 82.4832C26.3291 88.0914 18.3844 105.129 23.9926 120.538L120.357 385.296C125.965 400.704 143.003 408.649 158.411 403.041L319.112 344.551C334.52 338.942 342.465 321.905 336.857 306.496L240.493 41.738C234.884 26.3294 217.847 18.3847 202.438 23.993Z" stroke="black" stroke-opacity="0.3" stroke-width="19.189"/>
<path d="M341.508 32.1549H170.493C148.133 32.1549 130.006 50.2814 130.006 72.6416V354.392C130.006 376.752 148.133 394.878 170.493 394.878H341.508C363.868 394.878 381.995 376.752 381.995 354.392V72.6416C381.995 50.2814 363.868 32.1549 341.508 32.1549Z" fill="#407076"/>
<path d="M341.506 42.9514H170.493C154.095 42.9514 140.802 56.2442 140.802 72.6417V354.392C140.802 370.789 154.095 384.082 170.493 384.082H341.506C357.904 384.082 371.197 370.789 371.197 354.392V72.6417C371.197 56.2442 357.904 42.9514 341.506 42.9514Z" stroke="black" stroke-opacity="0.3" stroke-width="19.189"/>
<path d="M473.955 72.3378L313.253 13.8473C292.242 6.19963 269.009 17.0334 261.361 38.0451L164.997 302.803C157.349 323.815 168.183 347.048 189.195 354.696L349.896 413.186C370.908 420.834 394.141 410 401.789 388.989L498.153 124.23C505.8 103.218 494.967 79.9855 473.955 72.3378Z" fill="#6969B3"/>
<path d="M470.262 82.4828L309.562 23.9926C294.153 18.3843 277.115 26.329 271.507 41.7376L175.143 306.496C169.535 321.905 177.48 338.942 192.888 344.55L353.589 403.041C368.997 408.649 386.035 400.704 391.643 385.295L488.007 120.537C493.615 105.129 485.671 88.091 470.262 82.4828Z" stroke="black" stroke-opacity="0.3" stroke-width="19.189"/>
</g>
<defs>
<clipPath id="clip0_101_30">
<rect width="512" height="427.604" fill="white"/>
</clipPath>
</defs>
</svg>
