<svg width="346" height="207" viewBox="0 0 346 207" fill="none" xmlns="http://www.w3.org/2000/svg">
<rect width="346" height="207" rx="35" fill="#99AAB5"/>
<rect x="111" y="155" width="125" height="30" rx="8" fill="#292F33"/>
<rect x="156" y="115" width="35" height="30" rx="8" fill="#292F33"/>
<rect x="111" y="115" width="35" height="30" rx="8" fill="#292F33"/>
<rect x="65" y="115" width="35" height="30" rx="8" fill="#292F33"/>
<rect x="246" y="115" width="35" height="30" rx="8" fill="#292F33"/>
<rect x="201" y="115" width="35" height="30" rx="8" fill="#292F33"/>
<rect x="173" y="75" width="35" height="30" rx="8" fill="#292F33"/>
<rect x="128" y="75" width="35" height="30" rx="8" fill="#292F33"/>
<rect x="82" y="75" width="35" height="30" rx="8" fill="#292F33"/>
<rect x="37" y="75" width="35" height="30" rx="8" fill="#292F33"/>
<rect x="263" y="75" width="35" height="30" rx="8" fill="#292F33"/>
<rect x="218" y="75" width="35" height="30" rx="8" fill="#292F33"/>
<rect x="173" y="35" width="35" height="19" rx="8" fill="#292F33"/>
<rect x="128" y="35" width="35" height="19" rx="8" fill="#292F33"/>
<rect x="82" y="35" width="35" height="19" rx="8" fill="#292F33"/>
<rect x="37" y="35" width="35" height="19" rx="8" fill="#292F33"/>
<rect x="263" y="35" width="35" height="19" rx="8" fill="#292F33"/>
<rect x="218" y="35" width="35" height="19" rx="8" fill="#292F33"/>
</svg>
