<svg width="512" height="307" viewBox="0 0 512 307" fill="none" xmlns="http://www.w3.org/2000/svg">
<g clip-path="url(#clip0_101_37)">
<path d="M460.208 0H51.7919C23.188 0 0 23.188 0 51.7919V254.52C0 283.124 23.188 306.312 51.7919 306.312H460.208C488.812 306.312 512 283.124 512 254.52V51.7919C512 23.188 488.812 0 460.208 0Z" fill="#99AAB5"/>
<path d="M337.387 229.364H176.093C169.555 229.364 164.254 234.664 164.254 241.202V261.919C164.254 268.457 169.555 273.757 176.093 273.757H337.387C343.925 273.757 349.225 268.457 349.225 261.919V241.202C349.225 234.664 343.925 229.364 337.387 229.364Z" fill="#292F33"/>
<path d="M270.798 170.173H242.682C236.144 170.173 230.844 175.473 230.844 182.011V202.728C230.844 209.266 236.144 214.566 242.682 214.566H270.798C277.336 214.566 282.636 209.266 282.636 202.728V182.011C282.636 175.473 277.336 170.173 270.798 170.173Z" fill="#292F33"/>
<path d="M204.208 170.173H176.093C169.555 170.173 164.254 175.473 164.254 182.011V202.728C164.254 209.266 169.555 214.566 176.093 214.566H204.208C210.746 214.566 216.046 209.266 216.046 202.728V182.011C216.046 175.473 210.746 170.173 204.208 170.173Z" fill="#292F33"/>
<path d="M136.139 170.173H108.023C101.485 170.173 96.185 175.473 96.185 182.011V202.728C96.185 209.266 101.485 214.566 108.023 214.566H136.139C142.677 214.566 147.977 209.266 147.977 202.728V182.011C147.977 175.473 142.677 170.173 136.139 170.173Z" fill="#292F33"/>
<path d="M403.977 170.173H375.861C369.323 170.173 364.023 175.473 364.023 182.011V202.728C364.023 209.266 369.323 214.566 375.861 214.566H403.977C410.515 214.566 415.815 209.266 415.815 202.728V182.011C415.815 175.473 410.515 170.173 403.977 170.173Z" fill="#292F33"/>
<path d="M337.387 170.173H309.272C302.734 170.173 297.434 175.473 297.434 182.011V202.728C297.434 209.266 302.734 214.566 309.272 214.566H337.387C343.925 214.566 349.225 209.266 349.225 202.728V182.011C349.225 175.473 343.925 170.173 337.387 170.173Z" fill="#292F33"/>
<path d="M295.954 110.983H267.838C261.3 110.983 256 116.283 256 122.821V143.538C256 150.076 261.3 155.376 267.838 155.376H295.954C302.492 155.376 307.792 150.076 307.792 143.538V122.821C307.792 116.283 302.492 110.983 295.954 110.983Z" fill="#292F33"/>
<path d="M229.364 110.983H201.249C194.711 110.983 189.41 116.283 189.41 122.821V143.538C189.41 150.076 194.711 155.376 201.249 155.376H229.364C235.902 155.376 241.202 150.076 241.202 143.538V122.821C241.202 116.283 235.902 110.983 229.364 110.983Z" fill="#292F33"/>
<path d="M161.295 110.983H133.179C126.641 110.983 121.341 116.283 121.341 122.821V143.538C121.341 150.076 126.641 155.376 133.179 155.376H161.295C167.833 155.376 173.133 150.076 173.133 143.538V122.821C173.133 116.283 167.833 110.983 161.295 110.983Z" fill="#292F33"/>
<path d="M94.7052 110.983H66.5896C60.0516 110.983 54.7515 116.283 54.7515 122.821V143.538C54.7515 150.076 60.0516 155.376 66.5896 155.376H94.7052C101.243 155.376 106.543 150.076 106.543 143.538V122.821C106.543 116.283 101.243 110.983 94.7052 110.983Z" fill="#292F33"/>
<path d="M429.133 110.983H401.017C394.479 110.983 389.179 116.283 389.179 122.821V143.538C389.179 150.076 394.479 155.376 401.017 155.376H429.133C435.671 155.376 440.971 150.076 440.971 143.538V122.821C440.971 116.283 435.671 110.983 429.133 110.983Z" fill="#292F33"/>
<path d="M362.543 110.983H334.428C327.89 110.983 322.59 116.283 322.59 122.821V143.538C322.59 150.076 327.89 155.376 334.428 155.376H362.543C369.081 155.376 374.382 150.076 374.382 143.538V122.821C374.382 116.283 369.081 110.983 362.543 110.983Z" fill="#292F33"/>
<path d="M295.954 51.7919H267.838C261.3 51.7919 256 57.092 256 63.63V68.0693C256 74.6074 261.3 79.9075 267.838 79.9075H295.954C302.492 79.9075 307.792 74.6074 307.792 68.0693V63.63C307.792 57.092 302.492 51.7919 295.954 51.7919Z" fill="#292F33"/>
<path d="M229.364 51.7919H201.249C194.711 51.7919 189.41 57.092 189.41 63.63V68.0693C189.41 74.6074 194.711 79.9075 201.249 79.9075H229.364C235.902 79.9075 241.202 74.6074 241.202 68.0693V63.63C241.202 57.092 235.902 51.7919 229.364 51.7919Z" fill="#292F33"/>
<path d="M161.295 51.7919H133.179C126.641 51.7919 121.341 57.092 121.341 63.63V68.0693C121.341 74.6074 126.641 79.9075 133.179 79.9075H161.295C167.833 79.9075 173.133 74.6074 173.133 68.0693V63.63C173.133 57.092 167.833 51.7919 161.295 51.7919Z" fill="#292F33"/>
<path d="M94.7052 51.7919H66.5896C60.0516 51.7919 54.7515 57.092 54.7515 63.63V68.0693C54.7515 74.6074 60.0516 79.9075 66.5896 79.9075H94.7052C101.243 79.9075 106.543 74.6074 106.543 68.0693V63.63C106.543 57.092 101.243 51.7919 94.7052 51.7919Z" fill="#292F33"/>
<path d="M429.133 51.7919H401.017C394.479 51.7919 389.179 57.092 389.179 63.63V68.0693C389.179 74.6074 394.479 79.9075 401.017 79.9075H429.133C435.671 79.9075 440.971 74.6074 440.971 68.0693V63.63C440.971 57.092 435.671 51.7919 429.133 51.7919Z" fill="#292F33"/>
<path d="M362.543 51.7919H334.428C327.89 51.7919 322.59 57.092 322.59 63.63V68.0693C322.59 74.6074 327.89 79.9075 334.428 79.9075H362.543C369.081 79.9075 374.382 74.6074 374.382 68.0693V63.63C374.382 57.092 369.081 51.7919 362.543 51.7919Z" fill="#292F33"/>
</g>
<defs>
<clipPath id="clip0_101_37">
<rect width="512" height="306.312" fill="white"/>
</clipPath>
</defs>
</svg>
