<svg width="400" height="400" viewBox="0 0 400 400" fill="none" xmlns="http://www.w3.org/2000/svg">
<rect width="400" height="400" fill="white"/>
<path d="M217.707 219.858C213.838 219.858 209.914 219.949 205.953 220.139C201.993 231.657 201.702 245.091 205.953 266.437C208.933 281.388 230.106 323.653 247.591 338.495C253.795 343.763 262.47 346.525 272.025 346.525C291.5 346.525 314.635 335.034 327.951 309.883C355.211 258.371 296.396 219.858 217.707 219.858V219.858Z" fill="#1C6399"/>
<path d="M341.804 53.8828C339.951 53.8828 337.944 54.0736 335.782 54.4823C306.879 59.9414 251.289 101.043 206.008 161.402C206.008 161.402 198.841 208.272 198.841 217.664C198.841 220.716 210.323 222.206 226.618 222.206C260.381 222.206 314.808 215.802 330.386 203.667C347.626 190.233 363.54 114.614 362.069 75.7827C361.651 65.1098 356.056 53.8828 341.804 53.8828V53.8828Z" fill="#1C6399"/>
<path d="M282.147 162.546L342.36 158.586C342.36 158.586 332.777 191.458 314.184 200.878C295.59 210.297 244.07 214.503 244.07 214.503C244.07 214.503 265.234 175.799 273.917 166.452C276.07 164.127 278.995 162.746 282.147 162.546V162.546ZM286.87 144.816L355.231 70.7773C355.231 70.7773 355.25 119.509 344.277 149.212C344.277 149.212 295.381 152.654 290.558 152.763C284.173 152.909 281.756 150.356 286.87 144.816V144.816ZM231.753 214.503L281.711 136.868C282.553 135.884 283.136 134.706 283.407 133.44C283.678 132.175 283.629 130.861 283.264 129.619L274.472 100.253L213.413 160.284L205.747 215.066L231.753 214.503V214.503ZM289.087 116.621C290.649 120.309 293.774 121.163 297.607 117.756C301.44 114.35 352.779 62.4025 352.107 61.2761C352.107 61.2761 326.383 50.4306 281.257 92.7317C281.257 92.7317 287.524 112.933 289.087 116.621V116.621ZM208.018 226.52L256.823 274.008C257.717 274.792 258.316 275.857 258.523 277.028C258.729 278.199 258.53 279.406 257.958 280.448L236.385 319.815C236.385 319.815 198.353 270.047 208.018 226.52ZM274.163 283.754L324.566 290.485C324.566 290.485 314.956 325.41 293.737 334.575C258.258 349.908 245.487 328.898 245.487 328.898L266.851 287.46C267.516 286.144 268.584 285.075 269.899 284.408C271.214 283.742 272.708 283.513 274.163 283.754V283.754ZM220.117 225.385L268.94 270.42C269.639 271.019 270.475 271.419 271.383 271.592L326.964 279.794C326.964 279.794 315.892 252.262 286.734 238.637C253.035 222.896 220.117 225.385 220.117 225.385V225.385Z" fill="#55ACEE"/>
<path d="M217.707 219.858C213.838 219.858 209.914 219.949 205.953 220.139C201.993 231.657 201.702 245.091 205.953 266.437C208.933 281.388 230.106 323.653 247.591 338.495C253.795 343.763 262.47 346.525 272.025 346.525C291.5 346.525 314.635 335.034 327.951 309.883C355.211 258.371 296.396 219.858 217.707 219.858V219.858ZM313.418 304.569C301.464 327.15 285.714 336.115 272.016 336.115C265.049 336.115 256.538 333.272 252.487 329.839C237.091 316.768 221.268 288.237 213.883 264.221C209.659 250.478 210.667 227.687 210.667 227.687L216.726 227.497C263.669 227.497 300.738 246.19 314.154 268.481C320.639 279.254 320.394 291.398 313.418 304.569V304.569Z" fill="#292F33"/>
<path d="M341.804 65.237C343.902 65.237 350.297 65.237 350.715 76.2096C351.641 100.562 345.319 131.264 338.025 156.888C333.111 174.155 323.619 186.79 319.005 190.378C313.918 194.338 302.083 201.623 285.224 204.575C266.785 207.8 247.01 212.142 226.582 212.142C219.07 212.142 213.565 212.314 210.286 211.951C211.476 200.887 214.728 179.696 216.799 165.953C251.025 121.081 305.007 71.8406 337.889 65.6366C339.297 65.3732 340.614 65.237 341.804 65.237V65.237ZM341.804 53.8828C339.951 53.8828 337.944 54.0736 335.782 54.4823C306.879 59.9414 251.289 101.043 206.008 161.402C206.008 161.402 198.841 208.272 198.841 217.664C198.841 220.716 210.323 222.206 226.618 222.206C260.381 222.206 314.808 215.802 330.386 203.667C347.626 190.233 363.54 114.614 362.069 75.7827C361.651 65.1098 356.056 53.8828 341.804 53.8828V53.8828Z" fill="#292F33"/>
<path d="M71.4497 309.883C84.7659 335.034 107.892 346.525 127.376 346.525C136.931 346.525 145.606 343.763 151.81 338.495C169.295 323.662 190.469 281.397 193.448 266.437C197.699 245.091 197.408 231.666 193.448 220.139C189.533 219.951 185.614 219.857 181.694 219.858C102.987 219.858 44.1815 258.371 71.4497 309.883V309.883Z" fill="#1C6399"/>
<path d="M57.5879 53.8828C43.3362 53.8828 37.7318 65.1098 37.3321 75.7736C35.8606 114.605 51.7746 190.233 69.0148 203.658C84.5927 215.793 139.011 222.197 172.783 222.197C189.078 222.197 200.56 220.707 200.56 217.655C200.56 208.272 193.393 161.393 193.393 161.393C148.103 101.043 92.5043 59.9414 63.6102 54.4823C61.6258 54.0954 59.6096 53.8947 57.5879 53.8828V53.8828Z" fill="#1C6399"/>
<path d="M117.238 162.546L57.0341 158.586C57.0341 158.586 66.617 191.458 85.2106 200.878C103.804 210.297 155.325 214.503 155.325 214.503C155.325 214.503 134.161 175.799 125.477 166.452C123.338 164.136 120.386 162.736 117.238 162.546V162.546ZM112.524 144.816L44.163 70.7773C44.163 70.7773 44.1449 119.509 55.1175 149.212C55.1175 149.212 104.013 152.654 108.836 152.763C115.222 152.909 117.638 150.356 112.524 144.816V144.816ZM167.642 214.503L117.684 136.868C116.842 135.884 116.259 134.706 115.987 133.44C115.716 132.175 115.765 130.861 116.13 129.619L124.923 100.253L185.981 160.284L193.647 215.066L167.642 214.503V214.503ZM110.299 116.621C108.736 120.309 105.612 121.163 101.779 117.756C97.9454 114.35 46.6064 62.4025 47.2786 61.2761C47.2786 61.2761 73.0026 50.4306 118.129 92.7317C118.138 92.7317 111.861 112.933 110.299 116.621ZM191.377 226.52L142.572 274.008C141.678 274.792 141.078 275.857 140.872 277.028C140.665 278.199 140.864 279.406 141.436 280.448L163.009 319.806C163 319.815 201.041 270.047 191.377 226.52V226.52ZM125.223 283.754L74.8193 290.485C74.8193 290.485 84.4294 325.41 105.648 334.575C141.128 349.908 153.899 328.898 153.899 328.898L132.535 287.46C131.872 286.142 130.804 285.071 129.488 284.404C128.172 283.737 126.678 283.51 125.223 283.754V283.754ZM179.278 225.385L130.455 270.42C129.757 271.018 128.914 271.422 128.011 271.592L72.4304 279.794C72.4304 279.794 83.5029 252.262 112.66 238.637C146.351 222.896 179.278 225.385 179.278 225.385Z" fill="#55ACEE"/>
<path d="M71.4497 309.883C84.7659 335.034 107.892 346.525 127.376 346.525C136.931 346.525 145.606 343.763 151.81 338.495C169.295 323.662 190.469 281.397 193.448 266.437C197.699 245.091 197.408 231.666 193.448 220.139C189.533 219.951 185.614 219.857 181.694 219.858C102.987 219.858 44.1815 258.371 71.4497 309.883V309.883ZM85.2382 268.472C98.6543 246.181 135.723 227.488 182.666 227.488L188.725 227.678C188.725 227.678 189.733 250.478 185.509 264.212C178.124 288.228 162.301 316.759 146.905 329.83C142.854 333.272 134.343 336.106 127.376 336.106C113.678 336.106 97.9276 327.15 85.974 304.56C78.998 291.398 78.7527 279.254 85.2382 268.472V268.472Z" fill="#292F33"/>
<path d="M57.5879 65.237C58.7778 65.237 60.0949 65.3732 61.5028 65.6366C94.3754 71.8406 148.367 121.081 182.593 165.953C184.664 179.696 187.916 200.887 189.106 211.951C185.826 212.314 180.322 212.142 172.81 212.142C152.382 212.142 132.607 207.8 114.168 204.575C97.3093 201.623 85.4738 194.338 80.3871 190.378C75.7728 186.781 66.2807 174.155 61.3666 156.888C54.0727 131.264 47.7507 100.562 48.6772 76.2096C49.095 65.237 55.4806 65.237 57.5879 65.237V65.237ZM57.5879 53.8828C43.3362 53.8828 37.7318 65.1098 37.3321 75.7736C35.8606 114.605 51.7746 190.233 69.0148 203.658C84.5927 215.793 139.011 222.197 172.783 222.197C189.078 222.197 200.56 220.707 200.56 217.655C200.56 208.272 193.393 161.393 193.393 161.393C148.103 101.043 92.5043 59.9414 63.6102 54.4823C61.6258 54.0954 59.6096 53.8947 57.5879 53.8828V53.8828Z" fill="#292F33"/>
<path d="M234.815 79.2171C234.276 78.9188 233.684 78.7299 233.072 78.6611C232.46 78.5924 231.84 78.6452 231.248 78.8165C230.657 78.9878 230.105 79.2743 229.624 79.6595C229.144 80.0446 228.744 80.5209 228.448 81.061L203.559 126.296C203.396 126.596 203.36 126.914 203.269 127.223C202.115 127.159 201.052 127.059 199.699 127.059C198.355 127.059 197.283 127.15 196.138 127.223C196.047 126.914 196.011 126.596 195.848 126.296L170.959 81.061C170.359 79.9709 169.351 79.1638 168.156 78.8171C166.961 78.4705 165.677 78.6127 164.587 79.2126C163.497 79.8124 162.69 80.8207 162.343 82.0157C161.997 83.2107 162.139 84.4944 162.739 85.5845L186.855 129.421C176.146 136.542 197.301 160.649 190.316 213.024C180.933 283.42 199.699 302.195 199.699 302.195C199.699 302.195 218.474 283.42 209.082 213.024C202.097 160.649 223.252 136.542 212.543 129.421L236.668 85.5845C236.965 85.0448 237.152 84.4519 237.22 83.8398C237.287 83.2276 237.233 82.6081 237.061 82.0168C236.889 81.4254 236.602 80.8738 236.217 80.3934C235.831 79.913 235.355 79.5133 234.815 79.2171V79.2171Z" fill="#292F33"/>
</svg>
