<svg width="512" height="461" viewBox="0 0 512 461" fill="none" xmlns="http://www.w3.org/2000/svg">
<g clip-path="url(#clip0_101_57)">
<path d="M284.373 261.534C278.277 261.534 272.094 261.678 265.852 261.977C259.612 280.126 259.154 301.295 265.852 334.931C270.548 358.49 303.911 425.088 331.463 448.475C341.239 456.776 354.908 461.129 369.965 461.129C400.652 461.129 437.107 443.022 458.09 403.39C501.044 322.221 408.367 261.534 284.373 261.534Z" fill="#1C6399"/>
<path d="M479.918 0C476.999 0 473.836 0.30065 470.429 0.944655C424.886 9.54679 337.29 74.3123 265.939 169.423C265.939 169.423 254.646 243.278 254.646 258.077C254.646 262.886 272.738 265.234 298.415 265.234C351.617 265.234 437.38 255.143 461.927 236.021C489.092 214.853 514.169 95.6967 511.851 34.5086C511.192 17.6909 502.376 0 479.918 0Z" fill="#1C6399"/>
<path d="M385.914 171.225L480.794 164.985C480.794 164.985 465.694 216.783 436.396 231.627C407.097 246.468 325.915 253.096 325.915 253.096C325.915 253.096 359.264 192.108 372.946 177.38C376.338 173.716 380.947 171.54 385.914 171.225ZM393.356 143.287L501.076 26.6214C501.076 26.6214 501.106 103.41 483.815 150.214C483.815 150.214 406.768 155.638 399.168 155.81C389.107 156.04 385.298 152.017 393.356 143.287ZM306.506 253.096L385.227 130.763C386.554 129.213 387.473 127.357 387.9 125.362C388.327 123.368 388.249 121.298 387.674 119.341L373.82 73.0675L277.607 167.661L265.527 253.983L306.506 253.096ZM396.85 98.8592C399.311 104.671 404.235 106.016 410.275 100.648C416.315 95.2807 497.212 13.4249 496.153 11.6499C496.153 11.6499 455.619 -5.43977 384.512 61.2158C384.512 61.2158 394.387 93.0479 396.85 98.8592ZM269.106 272.032L346.01 346.86C347.419 348.096 348.363 349.774 348.689 351.619C349.013 353.464 348.7 355.366 347.799 357.008L313.805 419.04C313.805 419.04 253.876 340.619 269.106 272.032ZM373.333 362.218L452.756 372.824C452.756 372.824 437.613 427.857 404.177 442.298C348.271 466.459 328.147 433.353 328.147 433.353L361.812 368.057C362.859 365.984 364.542 364.299 366.614 363.248C368.687 362.199 371.041 361.838 373.333 362.218ZM288.171 270.243L365.103 341.207C366.205 342.151 367.522 342.781 368.953 343.054L456.534 355.978C456.534 355.978 439.088 312.594 393.142 291.125C340.041 266.321 288.171 270.243 288.171 270.243Z" fill="#55ACEE"/>
<path d="M284.373 261.534C278.277 261.534 272.094 261.678 265.852 261.977C259.612 280.126 259.154 301.295 265.852 334.931C270.548 358.49 303.911 425.088 331.463 448.475C341.239 456.776 354.908 461.129 369.965 461.129C400.652 461.129 437.107 443.022 458.09 403.39C501.044 322.221 408.367 261.534 284.373 261.534ZM435.189 395.017C416.353 430.599 391.535 444.725 369.95 444.725C358.972 444.725 345.561 440.245 339.178 434.836C314.918 414.239 289.985 369.282 278.348 331.439C271.692 309.783 273.28 273.871 273.28 273.871L282.828 273.571C356.798 273.571 415.209 303.027 436.349 338.151C446.568 355.127 446.182 374.263 435.189 395.017Z" fill="#292F33"/>
<path d="M479.918 17.8913C483.224 17.8913 493.301 17.8913 493.96 35.1813C495.419 73.5544 485.457 121.933 473.964 162.31C466.22 189.518 451.264 209.427 443.993 215.081C435.977 221.321 417.328 232.8 390.763 237.452C361.708 242.534 330.548 249.376 298.358 249.376C286.521 249.376 277.847 249.647 272.68 249.075C274.555 231.641 279.679 198.249 282.943 176.594C336.874 105.887 421.936 28.2969 473.749 18.5209C475.968 18.1059 478.043 17.8913 479.918 17.8913ZM479.918 0C476.999 0 473.836 0.30065 470.429 0.944655C424.886 9.54679 337.29 74.3123 265.939 169.423C265.939 169.423 254.646 243.278 254.646 258.077C254.646 262.886 272.738 265.234 298.415 265.234C351.617 265.234 437.38 255.143 461.927 236.021C489.092 214.853 514.169 95.6967 511.851 34.5086C511.192 17.6909 502.376 0 479.918 0Z" fill="#292F33"/>
<path d="M53.9099 403.39C74.8928 443.022 111.334 461.129 142.035 461.129C157.092 461.129 170.761 456.776 180.537 448.475C208.089 425.103 241.454 358.504 246.148 334.931C252.846 301.295 252.388 280.141 246.148 261.977C239.979 261.681 233.803 261.533 227.627 261.534C103.605 261.534 10.9423 322.221 53.9099 403.39Z" fill="#1C6399"/>
<path d="M32.0671 0C9.61008 0 0.778991 17.6908 0.149167 34.4942C-2.16954 95.6825 22.9068 214.853 50.0729 236.007C74.6197 255.129 160.369 265.22 213.585 265.22C239.262 265.22 257.354 262.872 257.354 258.063C257.354 243.278 246.061 169.408 246.061 169.408C174.696 74.3123 87.0863 9.54679 41.5567 0.944655C38.4298 0.335001 35.2528 0.0187513 32.0671 0Z" fill="#1C6399"/>
<path d="M126.06 171.225L31.1944 164.985C31.1944 164.985 46.2946 216.783 75.5933 231.627C104.892 246.468 186.075 253.096 186.075 253.096C186.075 253.096 152.726 192.108 139.043 177.38C135.672 173.731 131.021 171.525 126.06 171.225ZM118.632 143.287L10.9128 26.6214C10.9128 26.6214 10.8843 103.41 28.1743 150.214C28.1743 150.214 105.221 155.638 112.821 155.81C122.883 156.04 126.69 152.017 118.632 143.287ZM205.484 253.096L126.763 130.763C125.436 129.213 124.518 127.357 124.089 125.362C123.662 123.368 123.739 121.298 124.314 119.341L138.17 73.0675L234.381 167.661L246.461 253.983L205.484 253.096ZM115.126 98.8592C112.663 104.671 107.741 106.016 101.701 100.648C95.66 95.2807 14.763 13.4249 15.8222 11.6499C15.8222 11.6499 56.3566 -5.43977 127.464 61.2158C127.478 61.2158 117.587 93.0479 115.126 98.8592ZM242.884 272.032L165.98 346.86C164.571 348.096 163.626 349.774 163.301 351.619C162.975 353.464 163.289 355.366 164.19 357.008L198.183 419.026C198.169 419.04 258.112 340.619 242.884 272.032ZM138.642 362.218L59.2193 372.824C59.2193 372.824 74.3623 427.857 107.797 442.298C163.705 466.459 183.828 433.353 183.828 433.353L150.164 368.057C149.12 365.981 147.437 364.293 145.363 363.242C143.289 362.191 140.935 361.833 138.642 362.218ZM223.819 270.243L146.887 341.207C145.787 342.149 144.459 342.786 143.036 343.054L55.455 355.978C55.455 355.978 72.9024 312.594 118.846 291.125C171.935 266.321 223.819 270.243 223.819 270.243Z" fill="#55ACEE"/>
<path d="M53.9099 403.39C74.8928 443.022 111.334 461.129 142.035 461.129C157.092 461.129 170.761 456.776 180.537 448.475C208.089 425.103 241.454 358.504 246.148 334.931C252.846 301.295 252.388 280.141 246.148 261.977C239.979 261.681 233.803 261.533 227.627 261.534C103.605 261.534 10.9423 322.221 53.9099 403.39ZM75.6371 338.137C96.7774 303.012 155.188 273.557 229.158 273.557L238.706 273.856C238.706 273.856 240.294 309.783 233.638 331.425C222.001 369.268 197.068 414.225 172.808 434.822C166.425 440.245 153.014 444.711 142.035 444.711C120.451 444.711 95.6323 430.599 76.7965 395.003C65.8041 374.263 65.4176 355.127 75.6371 338.137Z" fill="#292F33"/>
<path d="M32.0671 17.8913C33.9421 17.8913 36.0175 18.1059 38.236 18.5209C90.0347 28.2968 175.112 105.887 229.043 176.594C232.306 198.249 237.431 231.641 239.306 249.075C234.137 249.647 225.464 249.376 213.627 249.376C181.438 249.376 150.278 242.534 121.223 237.452C94.6578 232.8 76.0081 221.321 67.9927 215.081C60.7218 209.413 45.7647 189.518 38.0213 162.31C26.528 121.933 16.5662 73.5544 18.0261 35.1813C18.6845 17.8913 28.7465 17.8913 32.0671 17.8913ZM32.0671 0C9.61008 0 0.778991 17.6908 0.149167 34.4942C-2.16954 95.6825 22.9068 214.853 50.0729 236.007C74.6197 255.129 160.369 265.22 213.585 265.22C239.262 265.22 257.354 262.872 257.354 258.063C257.354 243.278 246.061 169.408 246.061 169.408C174.696 74.3123 87.0863 9.54679 41.5567 0.944655C38.4298 0.335001 35.2528 0.0187513 32.0671 0Z" fill="#292F33"/>
<path d="M311.331 39.9202C310.482 39.4501 309.549 39.1525 308.585 39.0441C307.621 38.9358 306.644 39.019 305.711 39.2889C304.779 39.5588 303.91 40.0103 303.152 40.6173C302.395 41.2241 301.765 41.9746 301.299 42.8257L262.08 114.104C261.823 114.577 261.766 115.078 261.623 115.565C259.805 115.464 258.13 115.307 255.998 115.307C253.88 115.307 252.191 115.45 250.386 115.565C250.243 115.078 250.186 114.577 249.929 114.104L210.711 42.8257C209.765 41.1079 208.177 39.8362 206.294 39.2899C204.411 38.7437 202.388 38.9678 200.67 39.9131C198.953 40.8582 197.681 42.447 197.134 44.33C196.589 46.213 196.813 48.2358 197.758 49.9535L235.759 119.029C218.884 130.249 252.219 168.236 241.212 250.765C226.427 361.691 255.998 391.276 255.998 391.276C255.998 391.276 285.582 361.691 270.783 250.765C259.776 168.236 293.111 130.249 276.236 119.029L314.251 49.9535C314.719 49.1031 315.014 48.1689 315.121 47.2043C315.227 46.2397 315.142 45.2635 314.871 44.3318C314.599 43.3999 314.147 42.5307 313.541 41.7737C312.932 41.0167 312.182 40.3869 311.331 39.9202Z" fill="#292F33"/>
</g>
<defs>
<clipPath id="clip0_101_57">
<rect width="512" height="460.8" fill="white"/>
</clipPath>
</defs>
</svg>
